<svg width="25" height="25" viewBox="0 0 25 25" fill="none" xmlns="http://www.w3.org/2000/svg">
<g clip-path="url(#clip0_649_2)">
<path d="M9.51465 19.9545C4.51465 21.4545 4.51465 17.4545 2.51465 16.9545M16.5146 22.9545V19.0845C16.5522 18.6077 16.4877 18.1283 16.3257 17.6783C16.1636 17.2283 15.9076 16.8179 15.5746 16.4745C18.7146 16.1245 22.0146 14.9345 22.0146 9.47453C22.0144 8.07835 21.4773 6.73573 20.5146 5.72453C20.9705 4.50303 20.9383 3.15288 20.4246 1.95453C20.4246 1.95453 19.2446 1.60453 16.5146 3.43453C14.2227 2.81335 11.8066 2.81335 9.51465 3.43453C6.78465 1.60453 5.60465 1.95453 5.60465 1.95453C5.09102 3.15288 5.05879 4.50303 5.51465 5.72453C4.54478 6.74323 4.00717 8.09799 4.01465 9.50453C4.01465 14.9245 7.31465 16.1145 10.4546 16.5045C10.1256 16.8445 9.87191 17.2499 9.70996 17.6944C9.548 18.139 9.48146 18.6126 9.51465 19.0845V22.9545" stroke="#ECA914" stroke-width="2" stroke-linecap="round" stroke-linejoin="round"/>
</g>
<defs>
<clipPath id="clip0_649_2">
<rect width="24" height="24" fill="white" transform="translate(0.514648 0.95459)"/>
</clipPath>
</defs>
</svg>
