<svg width="39" height="36" viewBox="0 0 39 36" fill="none" xmlns="http://www.w3.org/2000/svg">
<path d="M32.609 15.8355C32.5438 15.3912 32.8796 14.9879 33.3202 14.9153L35.3859 14.5753C35.8541 14.4982 36.2658 14.8049 36.3272 15.2234C36.3923 15.6675 36.0567 16.0711 35.616 16.1436L33.5504 16.4837C33.1097 16.5562 32.6742 16.2796 32.609 15.8355ZM29.0288 8.92919C28.7035 8.63473 28.7094 8.09834 29.0605 7.79961L30.5442 6.37716C30.8639 6.05682 31.4263 6.04481 31.7278 6.36995C32.0531 6.66416 32.0472 7.20054 31.6961 7.49954L30.2124 8.92146C29.8927 9.2418 29.3579 9.24954 29.0288 8.92919ZM21.7521 5.80694C21.306 5.731 21.0082 5.28557 21.1419 4.85879L21.6167 2.92354C21.7112 2.49491 22.1884 2.19604 22.6315 2.30914C23.0776 2.38508 23.3751 2.83056 23.2417 3.25729L22.7669 5.19254C22.6726 5.62113 22.2166 5.90208 21.7521 5.80694ZM13.713 6.81938C13.2915 7.02263 12.7888 6.86446 12.5935 6.49504L11.6878 4.74345C11.4887 4.3479 11.6713 3.86246 12.0653 3.66375C12.4867 3.4605 12.9895 3.61894 13.1848 3.98835L14.0905 5.73968C14.3172 6.13096 14.1345 6.61614 13.713 6.81938ZM7.82159 12.4206C7.59604 12.8058 7.08425 12.9704 6.69165 12.7938L4.87041 11.916C4.47402 11.7135 4.31848 11.2302 4.51653 10.8499C4.74209 10.4647 5.25387 10.3002 5.6464 10.4762L7.46771 11.3545C7.89165 11.5524 8.04715 12.0355 7.82159 12.4206ZM6.38924 20.1522C6.4544 20.5963 6.11872 20.9999 5.67805 21.0724L3.61241 21.4125C3.1442 21.4896 2.73246 21.1826 2.67109 20.7644C2.60589 20.32 2.94161 19.9167 3.38228 19.8442L5.44792 19.5041C5.91613 19.427 6.32403 19.7079 6.38924 20.1522ZM9.96949 27.0586C10.2948 27.353 10.2889 27.8894 9.93775 28.1879L8.45404 29.6103C8.13435 29.9307 7.57201 29.943 7.2704 29.6176C6.94516 29.3233 6.95107 28.787 7.3021 28.488L8.78588 27.066C9.10557 26.7457 9.64037 26.738 9.96949 27.0586ZM17.188 30.5015C17.6478 30.5596 17.9609 30.9632 17.857 31.4086L17.4958 33.3685C17.4195 33.8097 16.9858 34.1218 16.5222 34.0377C16.0623 33.9796 15.7492 33.5758 15.8531 33.1306L16.2142 31.1702C16.2906 30.7295 16.7281 30.4433 17.188 30.5015ZM25.2853 29.1684C25.7068 28.9651 26.2095 29.123 26.4047 29.4925L27.3105 31.2443C27.5096 31.6396 27.3269 32.125 26.933 32.3238C26.5115 32.527 26.0087 32.3686 25.8135 31.9992L24.9077 30.2478C24.7087 29.8523 24.8638 29.3716 25.2853 29.1684ZM31.1767 23.5671C31.4022 23.1817 31.914 23.0171 32.3066 23.1937L34.1278 24.0715C34.5242 24.274 34.6798 24.7573 34.4817 25.1376C34.2562 25.5228 33.7444 25.6876 33.3518 25.5113L31.5305 24.633C31.1341 24.4305 30.9511 23.9523 31.1767 23.5671Z" fill="#ECA914"/>
<path d="M9.2992 17.9985C9.29672 23.5059 13.8617 27.9725 19.4949 27.9749C25.1283 27.9773 29.6969 23.5147 29.6994 18.0074V17.9985C29.7002 12.4912 25.1343 8.0262 19.5009 8.02539C13.8675 8.02432 9.30002 12.488 9.2992 17.9953V17.9985Z" fill="#ECA914"/>
</svg>
